<?xml version="1.0" encoding="UTF-8"?>
<svg xmlns="http://www.w3.org/2000/svg" xmlns:xlink="http://www.w3.org/1999/xlink" width="17px" height="17px" viewBox="0 0 17 17" version="1.1">
<g id="surface1">
<path style=" stroke:none;fill-rule:nonzero;fill:rgb(0%,0%,0%);fill-opacity:1;" d="M 7.785156 7.339844 C 7.59375 7.34375 7.464844 7.363281 7.398438 7.386719 L 7.398438 8.585938 C 7.476562 8.601562 7.574219 8.609375 7.710938 8.609375 C 8.21875 8.613281 8.539062 8.363281 8.539062 7.9375 C 8.539062 7.554688 8.265625 7.332031 7.785156 7.339844 Z M 7.785156 7.339844 "/>
<path style=" stroke:none;fill-rule:nonzero;fill:rgb(0%,0%,0%);fill-opacity:1;" d="M 15.585938 1.421875 L 10.4375 1.421875 C 10.414062 1.421875 10.390625 1.421875 10.371094 1.425781 L 10.371094 0 L 0.324219 1.339844 L 0.324219 15.625 L 10.371094 17 L 10.371094 15.53125 C 10.390625 15.535156 10.414062 15.535156 10.4375 15.535156 L 15.585938 15.535156 C 16.1875 15.535156 16.675781 15.046875 16.675781 14.445312 L 16.675781 2.511719 C 16.675781 1.910156 16.1875 1.421875 15.585938 1.421875 Z M 2.84375 9.164062 C 2.84375 10.214844 2.386719 10.558594 1.667969 10.519531 C 1.5 10.511719 1.28125 10.46875 1.140625 10.410156 L 1.222656 9.765625 C 1.320312 9.804688 1.445312 9.835938 1.589844 9.84375 C 1.898438 9.851562 2.089844 9.703125 2.089844 9.140625 L 2.089844 6.859375 L 2.84375 6.835938 Z M 4.371094 10.652344 C 3.957031 10.632812 3.558594 10.5 3.359375 10.375 L 3.519531 9.683594 C 3.734375 9.808594 4.070312 9.9375 4.417969 9.949219 C 4.800781 9.960938 5.003906 9.804688 5.003906 9.550781 C 5.003906 9.308594 4.828125 9.167969 4.386719 8.996094 C 3.789062 8.769531 3.40625 8.421875 3.40625 7.878906 C 3.40625 7.242188 3.910156 6.738281 4.765625 6.710938 C 5.1875 6.695312 5.503906 6.777344 5.730469 6.875 L 5.539062 7.59375 C 5.386719 7.519531 5.117188 7.414062 4.75 7.421875 C 4.390625 7.429688 4.21875 7.601562 4.21875 7.800781 C 4.21875 8.042969 4.425781 8.148438 4.898438 8.335938 C 5.566406 8.589844 5.886719 8.957031 5.886719 9.511719 C 5.886719 10.171875 5.390625 10.707031 4.371094 10.652344 Z M 9.117188 8.90625 C 8.777344 9.207031 8.285156 9.332031 7.71875 9.320312 C 7.59375 9.316406 7.484375 9.308594 7.398438 9.296875 L 7.398438 10.746094 L 6.488281 10.703125 L 6.488281 6.769531 C 6.765625 6.710938 7.164062 6.664062 7.738281 6.644531 C 8.328125 6.625 8.757812 6.722656 9.050781 6.9375 C 9.335938 7.140625 9.527344 7.488281 9.527344 7.90625 C 9.527344 8.320312 9.382812 8.671875 9.117188 8.90625 Z M 16.050781 14.445312 C 16.050781 14.703125 15.84375 14.910156 15.585938 14.910156 L 10.4375 14.910156 C 10.414062 14.910156 10.390625 14.910156 10.371094 14.90625 L 10.371094 11.089844 C 10.71875 11.140625 11.207031 11.167969 11.878906 11.167969 C 13.742188 11.167969 14.558594 10.828125 14.691406 10.683594 C 14.828125 10.535156 14.652344 10.421875 14.652344 10.421875 C 14.652344 10.421875 14.710938 10.496094 14.628906 10.578125 C 14.546875 10.660156 13.792969 10.867188 12.582031 10.929688 C 11.738281 10.972656 10.847656 10.902344 10.371094 10.800781 L 10.371094 10.453125 C 10.53125 10.410156 10.6875 10.382812 10.6875 10.382812 C 10.660156 10.386719 10.53125 10.390625 10.371094 10.40625 L 10.371094 8.703125 C 10.636719 8.835938 11.195312 8.914062 12.039062 8.882812 C 13.511719 8.832031 13.683594 8.554688 13.839844 8.417969 C 12.984375 8.652344 10.71875 8.636719 10.703125 8.464844 C 10.6875 8.296875 11.402344 8.15625 11.402344 8.15625 C 11.402344 8.15625 10.710938 8.15625 10.371094 8.292969 L 10.371094 2.050781 C 10.390625 2.046875 10.414062 2.046875 10.4375 2.046875 L 15.585938 2.046875 C 15.84375 2.046875 16.050781 2.253906 16.050781 2.511719 Z M 16.050781 14.445312 "/>
<path style=" stroke:none;fill-rule:nonzero;fill:rgb(0%,0%,0%);fill-opacity:1;" d="M 13.125 5.222656 C 13.496094 4.617188 13.078125 4.027344 13.078125 4.027344 C 13.078125 4.027344 13.171875 4.460938 12.921875 4.910156 C 12.675781 5.363281 11.757812 5.625 11.402344 6.402344 C 11.042969 7.179688 12.191406 8.0625 12.191406 8.0625 C 12.191406 8.0625 11.773438 7.253906 11.789062 6.664062 C 11.800781 6.242188 12.75 5.828125 13.125 5.222656 Z M 13.125 5.222656 "/>
<path style=" stroke:none;fill-rule:nonzero;fill:rgb(0%,0%,0%);fill-opacity:1;" d="M 13.761719 5.609375 C 13.761719 5.609375 12.332031 6.152344 12.332031 6.773438 C 12.332031 7.394531 12.722656 7.597656 12.785156 7.800781 C 12.84375 8 12.675781 8.34375 12.675781 8.34375 C 12.675781 8.34375 13.234375 7.953125 13.140625 7.503906 C 13.046875 7.054688 12.613281 6.914062 12.859375 6.464844 C 13.027344 6.164062 13.761719 5.609375 13.761719 5.609375 Z M 13.761719 5.609375 "/>
<path style=" stroke:none;fill-rule:nonzero;fill:rgb(0%,0%,0%);fill-opacity:1;" d="M 14.054688 8.1875 C 14.054688 8.1875 14.691406 8.1875 14.753906 8.574219 C 14.816406 8.964844 13.949219 9.539062 13.949219 9.539062 C 13.949219 9.539062 15.316406 9.261719 15.1875 8.558594 C 15.035156 7.707031 14.054688 8.1875 14.054688 8.1875 Z M 14.054688 8.1875 "/>
<path style=" stroke:none;fill-rule:nonzero;fill:rgb(0%,0%,0%);fill-opacity:1;" d="M 11.011719 9.210938 C 10.953125 9.101562 11.121094 9.039062 11.121094 9.039062 C 10.34375 9.226562 10.769531 9.554688 11.679688 9.617188 C 12.460938 9.667969 13.332031 9.382812 13.332031 9.382812 L 13.601562 9.164062 C 13.601562 9.164062 12.984375 9.25 12.503906 9.304688 C 11.855469 9.378906 11.074219 9.320312 11.011719 9.210938 Z M 11.011719 9.210938 "/>
<path style=" stroke:none;fill-rule:nonzero;fill:rgb(0%,0%,0%);fill-opacity:1;" d="M 11.277344 9.957031 C 11.246094 9.882812 11.308594 9.84375 11.308594 9.84375 C 11.308594 9.84375 10.957031 9.851562 10.9375 10.039062 C 10.914062 10.226562 11.046875 10.320312 11.917969 10.296875 C 12.953125 10.273438 13.125 10.152344 13.234375 10.0625 L 13.484375 9.871094 C 12.808594 9.957031 12.753906 9.980469 12.371094 9.992188 C 11.984375 10.003906 11.308594 10.027344 11.277344 9.957031 Z M 11.277344 9.957031 "/>
<path style=" stroke:none;fill-rule:nonzero;fill:rgb(0%,0%,0%);fill-opacity:1;" d="M 13.96875 11.292969 C 13.148438 11.457031 10.667969 11.355469 10.667969 11.355469 C 10.667969 11.355469 12.28125 11.738281 14.125 11.414062 C 15.003906 11.261719 15.054688 10.835938 15.054688 10.835938 C 15.054688 10.835938 14.785156 11.125 13.96875 11.292969 Z M 13.96875 11.292969 "/>
</g>
</svg>
